<svg xmlns="http://www.w3.org/2000/svg" viewBox="0 0 64 64" role="img" aria-label="Anvil icon">
  <defs>
    <linearGradient id="metal" x1="0" y1="0" x2="1" y2="1">
      <stop offset="0%" stop-color="#c9d2dd"/>
      <stop offset="50%" stop-color="#7f8ea3"/>
      <stop offset="100%" stop-color="#445167"/>
    </linearGradient>
    <linearGradient id="forge" x1="0" y1="0" x2="0" y2="1">
      <stop offset="0%" stop-color="#ffcf6f"/>
      <stop offset="100%" stop-color="#ff7b2f"/>
    </linearGradient>
  </defs>
  <rect width="64" height="64" rx="12" fill="#0f141f"/>
  <rect x="6" y="6" width="52" height="52" rx="12" fill="#151f30" stroke="#2e3a50" stroke-width="2"/>
  <g transform="translate(4 6)">
    <path d="M14 14h32c1.7 0 3 1.3 3 3s-1.3 3-3 3h-6c-.6 2.8-2.2 5-5.5 6.5l4 2.5c1.2.8 1.9 2.1 1.9 3.5 0 2.4-2 4.5-4.4 4.5H24.1c-2.6 0-4.5-2-4.5-4.5 0-1.4.8-2.7 2-3.5l4-2.5c-3.3-1.6-5-3.7-5.6-6.5H14c-1.7 0-3-1.3-3-3s1.3-3 3-3z" fill="url(#metal)" stroke="#1f2a3a" stroke-width="2" stroke-linejoin="round"/>
    <rect x="22" y="35" width="16" height="8" rx="2" fill="#7f8ea3" stroke="#1f2a3a" stroke-width="2"/>
    <rect x="18" y="42" width="24" height="6" rx="2" fill="#6d7b92" stroke="#1f2a3a" stroke-width="2"/>
  </g>
  <g transform="translate(8 2)">
    <rect x="26" y="6" width="4" height="14" rx="1.5" fill="#5f6f86"/>
    <path d="M22 10h12l-2 6H24z" fill="#b5c0ce" stroke="#2c3545" stroke-width="1.5"/>
    <rect x="20" y="5" width="16" height="4" rx="1.5" fill="url(#forge)" stroke="#c95c1f" stroke-width="1.2"/>
    <path d="M32 7c3 1.5 5.5 3.7 7.5 6.5L37 15c-2-2.3-4.1-4-6.5-5z" fill="#ff9f40" opacity="0.8"/>
  </g>
</svg>
